<svg xmlns="http://www.w3.org/2000/svg" xmlns:xlink="http://www.w3.org/1999/xlink" viewBox="0 0 48 65" fill="#fff" fill-rule="evenodd" stroke="#000" stroke-linecap="round" stroke-linejoin="round"><style><![CDATA[.B{stroke-width:.089}.C{fill-rule:nonzero}.D{fill:none}.E{stroke:none}.F{fill:#f9c89a}.G{fill:#4f2e0e}.H{fill:#6d9758}.I{stroke-width:.018}.J{stroke-width:.177}]]></style><use xlink:href="#J" x=".5" y=".5"/><defs><linearGradient id="A" x1="-0.00%" y1="50.00%" x2="100.00%" y2="50.00%"><stop offset="0%" stop-color="#442b1f"/></linearGradient><linearGradient id="B" x1="-0.01%" y1="50.00%" x2="99.98%" y2="50.00%"><stop offset="0%" stop-color="#c8b091"/><stop offset="19.9%" stop-color="#c5a788"/><stop offset="52.9%" stop-color="#bc8e6e"/><stop offset="94.8%" stop-color="#ad6745"/><stop offset="99.4%" stop-color="#ab6240"/></linearGradient><linearGradient id="C" x1="-0.00%" y1="50.01%" x2="100.00%" y2="50.01%"><stop offset="0%" stop-color="#88786f"/><stop offset="10.5%" stop-color="#806f66"/><stop offset="28.1%" stop-color="#6b574c"/><stop offset="50.3%" stop-color="#493023"/><stop offset="62.2%" stop-color="#34180a"/><stop offset="100%" stop-color="#3e2316"/></linearGradient><linearGradient id="D" x1="-0.00%" y1="50.00%" x2="100.00%" y2="50.00%"><stop offset="0%" stop-color="#f8fb9b"/><stop offset="12.6%" stop-color="#f5f892"/><stop offset="33.4%" stop-color="#efef78"/><stop offset="60.1%" stop-color="#e3e14f"/><stop offset="91.1%" stop-color="#d4ce16"/><stop offset="100%" stop-color="#cfc804"/></linearGradient><linearGradient id="E" x1="-0.00%" y1="50.00%" x2="99.99%" y2="50.00%"><stop offset="0%" stop-color="#f8fb9b"/><stop offset="12.6%" stop-color="#f5f892"/><stop offset="33.4%" stop-color="#efef78"/><stop offset="60.1%" stop-color="#e3e14f"/><stop offset="91.1%" stop-color="#d4ce16"/><stop offset="100%" stop-color="#cfc804"/></linearGradient><linearGradient id="F" x1="0.00%" y1="50.00%" x2="100.00%" y2="50.00%"><stop offset="0%" stop-color="#f8fb9b"/><stop offset="12.6%" stop-color="#f5f892"/><stop offset="33.4%" stop-color="#efef78"/><stop offset="60.1%" stop-color="#e3e14f"/><stop offset="91.1%" stop-color="#d4ce16"/><stop offset="100%" stop-color="#cfc804"/></linearGradient><linearGradient id="G" x1="50.00%" y1="100.00%" x2="50.00%" y2="-0.00%"><stop offset="37.2%" stop-color="#1d2739"/></linearGradient><path id="H" d="M30.798 22.971c0-.364.293-.657.657-.657s.657.293.657.657-.293.657-.657.657-.657-.293-.657-.657z"/><path id="I" d="M30.935 22.966c0-.285.23-.515.515-.515s.515.23.515.515-.23.515-.515.515-.515-.23-.515-.515z"/></defs><symbol id="J" overflow="visible"><g class="B C"><path d="M32.85 54.562c0-.504.866-.91 1.941-.91s1.941.406 1.941.91-.866.91-1.941.91-1.941-.406-1.941-.91z" fill="#331e09"/><path d="M20.263 50.956l.876 4.276c.103.979 2.061 1.443 2.267.309s.927-3.915.927-3.915zm12.313.721s1.03 2.473 1.03 3.864 2.473 1.597 2.679.669.515-4.585.515-4.585z" class="F"/><path d="M23.285 53.892c-.412.172-1.58.309-2.026.138s.034 1.614.172 2.164 1.58.446 1.58.446z" fill="#a15813"/><path d="M19.98 55.309c0-1.142.385-2.061.863-2.061s.863.919.863 2.061-.385 2.061-.863 2.061-.863-.919-.863-2.061zm2.678.22c0-1.12.396-2.022.889-2.022s.889.902.889 2.022-.396 2.022-.889 2.022-.889-.902-.889-2.022z" class="G"/><path d="M17.507 61.285l-.026-2.421c-.026-1.339 1.391-3.039 4.276-2.962s4.224 1.674 4.224 3.22-.129 2.782-.283 3.091-7.545.412-7.828.129-.361-1.056-.361-1.056z" fill="#9e5613"/><path d="M17.507 63.371c-.489-.129-.669-.644-.695-1.133s.386-.903.695-.953c.232.309.695.438 1.108.514s5.692.129 6.31.077.773-.412.876-.566c.438.154.62.618.644 1.056s-.18.85-.62 1.005-2.756.514-4.353.489-3.967-.489-3.967-.489z" class="G"/><path d="M36.722 55.026s-1.391.824-3.17.206c-1.159-.155-1.47-.155-1.443.412s.181 2.112-.36 2.756-1.108 2.32-.283 3.091 12.75.695 13.214.567.747-.953.747-.953.154-1.753.103-2.679-1.339-2.627-3.529-2.55-3.091 1.623-4.07 1.829c-.824-.773-1.134-1.674-1.134-1.855s-.077-.824-.077-.824z" fill="#9e5613"/><path d="M34.056 57.847c.773 0 1.328-.348 1.391-1.146s-.129-1.236-.696-1.275-1.262-.155-1.597-.373-.372-.62-.23-.786.386-.322.386-.322l-.089-.244s-1.275.489-1.159 1.854.798 2.292 1.996 2.292zm1.404-2.421c.425.167.515.49.451.837s-.206 1.352.528 1.314.927-1.47.863-2.125-.49-1.288-.683-1.443l-.039.195s.146.103.151.361-.434.747-1.271.863z" class="G"/></g><path d="M37.933 57.705c-.395.859-.773 3.607-.429 4.362" class="B D"/><g class="C"><path d="M31.468 61.491s-.593.361-.541.927.489.696 1.133.85 6.749.337 7.856.386 4.894-.23 5.538-.489 1.211-1.391-.026-2.061c-.49.541-.876.644-1.674.747s-4.534.129-6.079.077l-5.667-.129c-.386-.026-.541-.309-.541-.309z" class="B G"/><g class="F"><path d="M28.738 14.818c-.181.206-1.03 1.187-.62 2.009s2.756 4.431 2.756 4.431 5.177-2.627 5.023-3.864-1.211-2.704-1.211-2.704zm12.734 18.709c.172-.172.549-1.013-.464-1.322-.807-.103-1.391.275-1.562.464s.36 1.202.687 1.236 1.34-.378 1.34-.378z" class="B"/><path d="M42.174 34.454c.155-.223.481-.79-.275-1.168s-1.769.017-2.027.412.429 1.271.567 1.271 1.734-.514 1.734-.514z" class="B"/><path d="M40.482 30.298l-.953 1.674a4.67 4.67 0 0 0 .738 1.571c.206.876-.138 1.187.154 1.134s1.992-.515 2.32-.309.773 1.048.464 1.614-1.202 1.734-2.456 2.044-2.764-.258-3.33-1.048-1.459-3.33-1.494-3.778.567-1.803.567-1.803l2.335-1.047z" class="B"/><path d="M39.272 31.844c.429.24 1.116.773 1.288 1.683s-.189 2.061-.773 2.542" class="B"/><path d="M42.224 35.896s-.412.584-1.374.446-.893-1.339-.429-1.666 1.202-.584 1.7-.498.738.309.738.309" class="B"/><path d="M40.92 34.918l.464.859s-.292.24-.635.086-.344-.412-.258-.635.43-.309.43-.309z" class="B"/></g><g class="H"><path d="M37.4 16.338s1.906 1.005 2.214 2.241c.927.309 2.018 1.67 1.913 2.666.996.412 1.438.99 1.438 1.642.55.481 1.372 1.714.376 3.5l-1.581 3.021-3.984-.344-.344-1.204 1.854-3.435s-.824-1.339-1.786-1.374l-.481 2.507.103 5.667-.515.309-.103 1.271 1.271 2.644.446.412-1.168 1.82.275.514 1.58 3.881-.034.481.928 1.202-.035.515.514 1.271-.996 2.267-.62 1.236.584 1.786s-1.614 1.477-4.293 1.443-4.499-1.408-4.499-1.408l-.515-.309s.584-3.365.446-5.255l-.55-5.392c0-.653-.172-2.507-.172-2.507l-.275 5.941c-.034 1.992-.309 4.705-.652 5.254s-.721.721-.721.721l.378.653.103.79-.412.514-.756-.206s-1.477 1.718-4.155 1.409-4.327-1.648-4.499-2.748c-.62-.446-.687-.756-.687-.756l1.753-2.026-.996-.584.824-1.477.687-1.923.412-1.648-.859.034 1.408-2.196-.103-1.511 2.576-5.46-.103-.893-.345-.481-.281-1.906.181-1.03s.891-1.082.992-1.975-.428-1.786-.428-1.786l-6.018 3.95-.863.069-2.475 1.099-.585-.24s-.207-.343-.275-.893 0-3.022.206-3.366.687-.344.687-.344.79-.137 1.408-.55l5.358-3.95 4.156-3.503s1.099-.859 1.717-1.063 1.03-.172 1.03-.172l.034 2.954 2.782 3.153 3.022-1.812 2.404-2.232z" class="B"/><path d="M28.274 14.921l-.412.258-1.777 2.962 1.93.181-.695 1.339 3.657 1.932.309-.361-2.653-3.271c-.62-.773-.797-2.499-.103-2.962s-.257-.077-.257-.077" class="B"/><path d="M29.922 21.992l5.525-.921-.651-2.356 2.363.301.206-2.731-2.447-1.571-.23-.026s.593.773.62 1.726-.85 1.674-1.571 2.292l-3.812 3.284zm3.838 1.893l3.658-1.21.386 1.957-3.426 2.19zm-3.949-1.829l.137 8.002-.619 2.267-.035 2.196-.103 2.164.481.721 1.305-.309m2.404-5.082l-2.026-.172.137.962 2.027.378z" class="B"/><path d="M36.611 31.535l-1.786.446.24 1.202 1.443-.378m-9.101-1.202l1.546.137.068 1.236-1.82-.172zm-3.812-.309l2.232.069-.103 1.271-2.026-.309m.859-9.754l-.859 1.546 3.743 2.919 1.134-2.782zm17.241 7.701s0-1.108.337-1.546c-.824-.361-2.808-1.159-3.889-1.03-.514.62-1.434 2.421-1.116 3.529 1.193-.412 4.671-.953 4.671-.953zm-26.041-6.568l1.187 1.726.747 1.932s-.464.644-.979.876l-2.353.996-.584-.241s.541-.343.62-2.302-.412-2.215-.412-2.215l1.159-.438zm17.49 18.16s.747 2.601 1.829 4.276c.541-.36 4.302-.62 5.212-.592" class="B"/></g></g><path d="M18.752 46.371c.687.18 3.598.592 3.598.592s1.571.387 2.421.026c.438-.979 1.753-5.512 1.753-5.512s-1.262-1.47-2.395-1.7-2.91-.85-2.91-.85" class="B D"/><path d="M20.675 41.323c.62-.077 3.683 0 5.435 1.262" class="B C H"/><path d="M19.748 46.955l.489 1.709" class="B D"/><path d="M18.794 49.72c1.159.824 4.199 2.473 8.294.644" class="B C H"/><path d="M30.592 50.931c1.416.566 4.919.721 6.749-.309" class="B D"/><g class="C"><g class="H"><path d="M36.619 50.338c1.828.592 4.482.696 4.791.053s-2.739-1.34-2.739-1.34" class="B"/><path d="M35.228 49.18c2.24.337 4.765-.103 4.765-.876s-3.452-.669-3.452-.669m.695-9.505c.747.903 1.314 1.753 1.958 1.958-1.545.258-5.254 1.03-5.821 1.674-.257-.592-.463-.903-.798-1.133.669-.903 4.662-2.499 4.662-2.499z" class="B"/></g><path d="M14.132 24.964c-.927-.103-2.833-.489-3.529-2.292-.438-.903-1.159-1.056-1.494-1.288-.438-.386-1.056-.669-1.932-.541s-2.267-.077-3.142-.592-1.803-.18-2.112.258-.336 1.056-.026 1.391l.514.541s-1.21.18-1.314 1.082.541 1.339.953 1.52.773.206.773.206-.464.62-.129 1.21 1.159.85 1.159.85.386.541.798.62 2.911.206 2.911.206 1.03-.386 1.623-.438 1.983-.077 2.447.129 2.499.258 2.499.258.258-1.108.23-1.7-.232-1.417-.232-1.417z" class="B F"/><path d="M10.406 52.382c-1.408.137-8.895-.103-10.406-.996.103 5.152 1.546 9.719 2.473 10.715s3.812 1.854 6.8 1.854 4.82-.898 4.052-2.095c-2.267-3.537-2.919-9.479-2.919-9.479z" fill="url(#A)" class="E"/><path d="M7.12 58.735v-45.85H4.911l.055 39.41c0 1.958.056 3.4.278 4.224s.938 1.906 1.271 2.061a1.59 1.59 0 0 0 .604.155z" fill="url(#B)" class="J"/><path d="M6.972 53.179H5.083s0 2.813.24 3.225l1.666.045z" fill="url(#C)" class="E"/><g class="B"><g class="F"><path d="M4.259 23.412s-.567.979-.532 1.288 1.099.086 1.168-.309-.635-.979-.635-.979zm.549 4.57c.464.026 1.314.077 1.623-.335s1.056-.798 1.056-1.262-.129-.721-.592-1.082-2.73.514-2.859.747-.309.876-.232 1.056.232.514.463.669.541.206.541.206z"/><path d="M6.146 26.074l.62.438s.62-.489.052-.85-.721.18-.721.18z"/><path d="M3.503 27.191c.309.086.275.292 1.065.086s1.683-.893 1.941-1.511-1.187-1.629-1.786-1.494-1.629.635-1.898.979-.318 1.013-.146 1.271.824.67.824.67zM6.302 22.4c-.189-.274-.378-.824-.62-.979s-1.03-.773-1.271-.927-.979-.721-1.614-.55-1.219.532-1.133 1.391.635.945.927 1.236.704.704.944.841.927.464 1.442.514 1.013-.275 1.202-.601.12-.927.12-.927z"/><path d="M5.289 21.883l-.876 1.442s.956.354 1.305-.172c.481-.721-.429-1.271-.429-1.271z"/><path d="M7.564 21.103c-.773.23-2.705 2.009-3.091 2.962s-.258 1.777.514 2.086 1.906-.386 2.215-.953S8 22.803 8 22.803m-3.02 1.47l1.734.876s-.258.481-.79.55-1.133-.361-1.15-.721.206-.704.206-.704zm2.644-.155c.172.309 1.116 1.202 1.629 1.254m-.153 2.335c.361-.086.601-.292.824-.464"/></g><use xlink:href="#H" fill="url(#D)"/></g></g><use xlink:href="#I" class="D I"/><use xlink:href="#H" x="-0.206" y="3.709" fill="url(#E)" class="B C"/><use xlink:href="#I" x="-0.206" y="3.709" class="D I"/><use xlink:href="#H" x="-0.413" y="7.418" fill="url(#F)" class="B C"/><use xlink:href="#I" x="-0.412" y="7.418" class="D I"/><g class="C"><path d="M26.255 8.095l-.567-.155s-.309.069-.275.223.258.344.24.62-.053.807.155 1.151.704.859.962.996.326-.069.326-.069l.309 2.73c.069.258.429.893 1.013 1.391s1.58 1.629 2.044 1.975 1.992.636 2.644-.034l2.215-2.438c.154-.223.601-.756.584-.962l-.086-2.49c.103.034.326-.086.446-.189s.876-.927.859-1.288-.24-1.357-.154-1.425.206-.344.053-.412-1.065.601-1.065.601-.184-2.348-1.03-2.954-7.693-1.03-8.105-.481-.567 3.211-.567 3.211z" class="B F"/><path d="M27.399 10.104l.081.841-.201-.438-.297-1.181-.895-1.303-.105-1.887v-.361l2.481-.807-.717 1.08-.548 1.7-.028.79.229.414z" fill="#000" class="E"/><g class="B"><path d="M36.49 7.041c1.777 1.159-.541.824-2.447.18s-5.718-1.753-6.594-1.777 5.796-.541 6.826-.206 2.215 1.803 2.215 1.803z" fill="#161616"/><path d="M25.551 5.227c-2.196-1.063-2.196-2.438.137-3.915s6.594-1.545 8.586-.996 5.083 2.507 4.705 4.43c-.378 1.477-2.095 1.854-2.095 1.854z" fill="url(#G)"/><path d="M25.749 5.957l-.258-1.159c3.17-1.88 9.015-1.932 11.643 1.262-.077.232-.412.798-.644.979-4.507-3.348-10.741-1.082-10.741-1.082z" fill="#03468b"/></g><g class="E"><path d="M30.412 4.411l1.185.155-.053.309-2.112-.18 1.546-1.391-1.056-.053.026-.336 1.932.23zm3.104-.992c.58.337.773.876.567 1.339s-.953.502-1.275.399-1.069-.592-.721-1.365c.232-.45.85-.708 1.429-.373zm-1.052.582c-.213.474.245.774.443.838s.656.039.782-.245.008-.616-.348-.822-.735-.047-.877.229zm3.008-.001c.534.284.789.844.704 1.374s-.687.674-.969.606a1.21 1.21 0 0 1-.835-1.381c.106-.52.566-.883 1.098-.599zm-.754.774c-.089.543.34.806.514.848s.542-.046.594-.372-.106-.669-.432-.844-.608.048-.675.368z"/><path d="M35.403 7.391l.226 1.202-.319.876.059.962v.496l.283-.412.117-1.442.539-.979.047-.567z" fill="#000"/></g></g><g class="D"><path d="M34.963 8.834c-.172-.103-.601-.514-.807-.514s-.773.172-1.03.189-1.047.326-1.116.395m-1.769.034c-.172 0-.687-.172-.79-.223s-.62-.034-.62-.034l-.395-.258-.532.498" class="J"/><path d="M30.549 9.434c.12.069.395.446.378.652l-.275 2.232c.034.052.67.155.756.086m.463-.206c.12-.017.275-.053.395.103m-2.095-2.559c-.292-.62-1.477-.62-1.923.017m4.139.034c.137-.755 1.872-.91 2.249-.154" class="B"/></g><g class="C"><path d="M28.711 9.735c0-.233.238-.421.532-.421s.532.188.532.421-.237.421-.532.421-.532-.188-.532-.421zm4.173-.172c0-.242.249-.438.558-.438s.558.195.558.438-.249.438-.558.438-.558-.195-.558-.438z" fill="#000" class="E"/><path d="M29.501 13.504c.825 1.048 3.28 1.013 3.842-.172l-.487.163s-1.02.043-1.243.163c-.154 0-.36.034-.36.034s-1.013-.137-1.168-.034-.584-.155-.584-.155z" fill="#d8d8d8" class="B"/></g><path d="M32.766 14.328c-.55.652-1.958.635-2.524.137" class="B D"/><path d="M32.893 9.494l.635.077-.541.24c-.103-.103-.094-.318-.094-.318zm-4.121.206l.635.077-.541.241c-.103-.103-.094-.318-.094-.318z" fill="#fcfcfc" class="C E"/><path d="M36.592 8.404c-.116.206-.451.631-.478.837s.142.734.129.837m.206-.387c-.026-.142-.116-.528-.258-.605m-10.287-.695c.129.181.786.721.811.939s-.142.554-.089.747.181.489.181.489m-.425-.682c-.039-.206.013-.655.206-.708" class="B D"/></symbol></svg>