<?xml version="1.0" encoding="UTF-8" standalone="no"?>
<!DOCTYPE svg PUBLIC "-//W3C//DTD SVG 1.1//EN" "http://www.w3.org/Graphics/SVG/1.1/DTD/svg11.dtd">
<svg version="1.1" xmlns="http://www.w3.org/2000/svg" xmlns:xlink="http://www.w3.org/1999/xlink" preserveAspectRatio="xMidYMid meet" viewBox="-1 -0.9999999999999858 265.3617006550442 48.13175869680631" width="261.36" height="44.13"><defs><path d="M39.99 7.88C38.4 7.12 25.66 1.02 24.07 0.26C23.65 0.05 23.18 0 22.76 0C22.34 0 21.87 0 21.46 0.1C19.86 0.87 7.13 7.01 5.53 7.78C4.75 8.14 4.18 8.82 3.97 9.71C3.57 11.43 0.44 25.17 0.05 26.89C-0.11 27.77 0.1 28.66 0.63 29.39C1.73 30.76 10.54 41.66 11.64 43.02C12.27 43.65 13.16 44.06 14.04 44.12C15.8 44.12 29.83 44.12 31.58 44.12C32.52 44.22 33.41 43.8 33.99 43.02C35.09 41.66 43.9 30.76 45 29.39C45.52 28.66 45.73 27.77 45.63 26.89C45.36 25.75 44.04 20.06 41.66 9.82C41.07 8.81 40.51 8.16 39.99 7.88Z" id="b5mBEAlLY1"></path><path d="M39.21 26.21C39.15 26.21 39.1 26.21 39.1 26.16C39.1 26.1 39 26.1 38.89 26.1C38.68 26.05 38.48 26.05 38.27 26.05C38.16 26.05 38.06 26.05 37.95 26C37.95 26 37.91 26 37.9 26C37.33 25.95 36.7 25.84 36.13 25.69C35.97 25.63 35.81 25.48 35.76 25.32C35.81 25.32 35.76 25.32 35.76 25.32C35.76 25.32 35.76 25.32 35.76 25.32C35.51 25.26 35.37 25.22 35.34 25.22C35.55 23.7 35.45 22.14 35.13 20.62C34.77 19.11 34.14 17.65 33.31 16.34C33.33 16.32 33.43 16.22 33.62 16.03L33.62 16.03C33.62 16 33.62 15.98 33.62 15.98C33.62 15.82 33.67 15.61 33.78 15.51C34.25 15.09 34.72 14.77 35.24 14.46C35.24 14.46 35.24 14.46 35.24 14.46C35.34 14.41 35.45 14.36 35.55 14.31C35.76 14.2 35.92 14.1 36.13 13.99C36.18 13.94 36.23 13.94 36.28 13.89C36.34 13.84 36.28 13.84 36.28 13.78C36.28 13.78 36.28 13.78 36.28 13.78C36.75 13.42 36.86 12.79 36.49 12.32C36.34 12.11 36.02 11.96 35.76 11.96C35.5 11.96 35.24 12.06 35.03 12.22C35.03 12.22 35.03 12.22 35.03 12.22C35 12.25 34.98 12.27 34.98 12.27C34.93 12.32 34.87 12.37 34.82 12.37C34.66 12.53 34.51 12.69 34.4 12.84C34.35 12.95 34.25 13 34.2 13.05C34.2 13.05 34.2 13.05 34.2 13.05C33.83 13.47 33.36 13.89 32.89 14.2C32.79 14.25 32.68 14.31 32.58 14.31C32.52 14.31 32.42 14.31 32.37 14.25C32.36 14.25 32.35 14.25 32.32 14.25C32.06 14.41 31.93 14.5 31.9 14.51C31.48 14.1 31.01 13.68 30.59 13.26C28.66 11.75 26.26 10.81 23.81 10.55C23.8 10.52 23.78 10.38 23.75 10.13L23.75 10.13C23.75 10.16 23.75 10.18 23.75 10.18C23.6 10.08 23.54 9.92 23.49 9.76C23.49 9.19 23.49 8.61 23.6 7.99C23.6 7.98 23.6 7.94 23.6 7.94C23.6 7.83 23.65 7.73 23.65 7.62C23.7 7.41 23.7 7.2 23.75 7C23.75 6.98 23.75 6.87 23.75 6.68C23.75 6.68 23.75 6.68 23.75 6.68C23.81 6.16 23.39 5.64 22.87 5.59C22.55 5.53 22.24 5.69 21.98 5.95C21.77 6.16 21.67 6.42 21.67 6.68C21.67 6.68 21.67 6.68 21.67 6.68C21.67 6.84 21.67 6.93 21.67 6.94C21.67 7.15 21.72 7.36 21.77 7.57C21.82 7.67 21.82 7.78 21.82 7.88C21.82 7.89 21.82 7.93 21.82 7.94C21.93 8.51 21.93 9.08 21.93 9.71C21.87 9.87 21.82 10.02 21.67 10.13C21.67 10.14 21.67 10.17 21.67 10.23L21.67 10.23C21.63 10.48 21.62 10.62 21.61 10.65C21.04 10.7 20.46 10.81 19.84 10.91C17.38 11.43 15.14 12.74 13.42 14.57C13.4 14.55 13.29 14.48 13.1 14.36C13.07 14.36 13.05 14.36 13.05 14.36C13 14.36 12.95 14.41 12.84 14.41C12.74 14.41 12.63 14.36 12.53 14.31C12.06 13.94 11.59 13.52 11.22 13.1C11.22 13.1 11.22 13.1 11.22 13.1C11.17 13 11.07 12.95 11.01 12.9C10.86 12.74 10.75 12.58 10.6 12.43C10.54 12.37 10.49 12.37 10.44 12.32C10.39 12.27 10.39 12.27 10.39 12.27C10.39 12.27 10.39 12.27 10.39 12.27C10.18 12.11 9.92 12.01 9.66 12.01C9.34 12.01 9.08 12.11 8.93 12.37C8.61 12.84 8.72 13.47 9.14 13.84C9.14 13.84 9.14 13.84 9.14 13.84C9.19 13.84 9.19 13.89 9.19 13.89C9.19 13.89 9.29 13.99 9.34 13.99C9.5 14.1 9.71 14.2 9.92 14.31C10.02 14.36 10.13 14.41 10.23 14.46C10.23 14.46 10.23 14.46 10.23 14.46C10.75 14.77 11.28 15.09 11.69 15.51C11.8 15.61 11.9 15.82 11.85 15.98C11.85 15.97 11.85 15.95 11.85 15.92L11.85 15.92C12.04 16.11 12.14 16.22 12.16 16.24C12.11 16.34 12.06 16.39 12.01 16.5C10.39 19.06 9.71 22.08 10.18 25.06C10.15 25.07 10.01 25.1 9.76 25.16C9.76 25.16 9.76 25.16 9.76 25.16C9.76 25.22 9.71 25.22 9.71 25.22C9.66 25.37 9.5 25.48 9.34 25.58C8.77 25.74 8.2 25.84 7.57 25.9C7.57 25.9 7.57 25.9 7.57 25.9C7.46 25.9 7.36 25.9 7.26 25.95C7.05 25.95 6.84 26 6.63 26C6.58 26 6.52 26.05 6.42 26.05C6.37 26.05 6.37 26.05 6.32 26.1C6.32 26.1 6.32 26.1 6.32 26.1C5.74 26.21 5.38 26.73 5.48 27.3C5.48 27.3 5.48 27.3 5.48 27.3C5.58 27.77 6.05 28.09 6.52 28.04C6.63 28.04 6.68 28.04 6.79 27.98C6.79 27.98 6.79 27.98 6.79 27.98C6.84 27.98 6.84 27.98 6.84 27.93C6.84 27.88 6.99 27.93 7.05 27.93C7.26 27.88 7.46 27.77 7.62 27.72C7.73 27.67 7.83 27.62 7.93 27.62C7.94 27.62 7.98 27.62 7.99 27.62C8.56 27.41 9.08 27.25 9.71 27.15C9.71 27.15 9.76 27.15 9.76 27.15C9.92 27.15 10.07 27.2 10.18 27.3C10.23 27.3 10.23 27.36 10.23 27.36C10.23 27.36 10.23 27.36 10.23 27.36C10.51 27.33 10.67 27.31 10.7 27.3C11.48 29.71 12.95 31.85 14.98 33.41C15.45 33.78 15.87 34.09 16.39 34.35C16.37 34.38 16.29 34.5 16.13 34.72C16.13 34.72 16.13 34.72 16.13 34.72C16.13 34.77 16.18 34.77 16.18 34.77C16.29 34.93 16.29 35.14 16.24 35.29C16.03 35.81 15.71 36.34 15.4 36.81C15.4 36.81 15.4 36.85 15.4 36.86C15.35 36.96 15.3 37.02 15.19 37.12C15.09 37.22 14.98 37.43 14.83 37.64C14.77 37.69 14.77 37.75 14.72 37.8C14.72 37.8 14.72 37.85 14.67 37.85C14.67 37.85 14.67 37.85 14.67 37.85C14.41 38.37 14.62 39 15.09 39.26C15.19 39.31 15.35 39.36 15.45 39.36C15.87 39.36 16.24 39.1 16.44 38.74C16.44 38.74 16.44 38.74 16.44 38.74C16.44 38.74 16.44 38.69 16.5 38.69C16.5 38.63 16.55 38.58 16.6 38.53C16.65 38.32 16.76 38.16 16.81 37.96C16.82 37.93 16.85 37.83 16.91 37.64C16.91 37.64 16.91 37.64 16.91 37.64C17.07 37.07 17.33 36.55 17.59 36.02C17.7 35.87 17.85 35.76 18.01 35.71C18.06 35.71 18.06 35.71 18.06 35.66C18.06 35.66 18.06 35.66 18.06 35.66C18.19 35.41 18.26 35.27 18.27 35.24C19.73 35.81 21.25 36.08 22.81 36.08C23.75 36.08 24.69 35.97 25.63 35.71C26.21 35.61 26.78 35.4 27.3 35.24C27.32 35.26 27.39 35.39 27.51 35.61C27.51 35.61 27.51 35.61 27.51 35.61C27.56 35.61 27.56 35.61 27.56 35.66C27.72 35.71 27.88 35.81 27.98 35.97C28.24 36.49 28.5 37.02 28.66 37.59C28.66 37.59 28.66 37.61 28.66 37.64C28.72 37.83 28.76 37.93 28.77 37.96C28.82 38.16 28.87 38.37 28.97 38.53C29.03 38.58 29.03 38.63 29.08 38.69C29.08 38.69 29.08 38.74 29.13 38.74C29.13 38.74 29.13 38.74 29.13 38.74C29.34 39.1 29.71 39.36 30.12 39.36C30.28 39.36 30.38 39.31 30.54 39.26C30.75 39.16 30.96 38.95 31.01 38.69C31.06 38.43 31.06 38.16 30.96 37.9C30.96 37.9 30.96 37.9 30.96 37.9C30.96 37.85 30.91 37.85 30.91 37.85C30.91 37.8 30.85 37.75 30.8 37.69C30.7 37.49 30.59 37.33 30.44 37.17C30.38 37.07 30.33 37.02 30.23 36.91C30.23 36.9 30.23 36.82 30.23 36.81C29.86 36.34 29.6 35.81 29.39 35.29C29.34 35.14 29.34 34.93 29.44 34.77C29.44 34.72 29.5 34.72 29.5 34.72C29.5 34.72 29.5 34.72 29.5 34.72C29.4 34.47 29.35 34.33 29.34 34.3C32 32.68 34.04 30.18 34.98 27.2C35.01 27.2 35.15 27.22 35.4 27.25C35.4 27.25 35.4 27.25 35.4 27.25C35.45 27.25 35.45 27.2 35.45 27.2C35.55 27.1 35.71 27.04 35.87 27.04C35.87 27.04 35.91 27.04 35.92 27.04C36.49 27.15 37.07 27.3 37.59 27.51C37.59 27.51 37.64 27.51 37.64 27.51C37.75 27.57 37.85 27.62 37.95 27.62C38.16 27.72 38.32 27.83 38.53 27.88C38.58 27.88 38.63 27.93 38.74 27.93C38.79 27.93 38.79 27.93 38.84 27.98C38.84 27.98 38.84 27.98 38.84 27.98C38.95 28.04 39 28.04 39.1 28.04C39.57 28.04 39.99 27.72 40.15 27.3C40.09 26.73 39.68 26.31 39.21 26.21C39.21 26.21 39.21 26.21 39.21 26.21ZM22.71 25.27L21.3 24.59L20.93 23.08L21.93 21.82L23.49 21.82L24.48 23.08L24.12 24.59L22.71 25.27ZM32.84 24.49C32.51 24.39 30.85 23.92 27.88 23.08C27.88 23.08 27.88 23.08 27.88 23.08C27.41 22.97 27.15 22.5 27.25 22.03C27.3 21.88 27.36 21.77 27.46 21.67C27.85 21.31 30.98 18.47 31.38 18.12C31.95 19.06 32.37 20.1 32.63 21.2C32.89 22.29 32.94 23.39 32.84 24.49ZM25.53 19.21C25.16 19.42 24.64 19.37 24.38 19C24.28 18.9 24.22 18.79 24.22 18.64C24.19 18.11 23.94 13.89 23.91 13.37C26.21 13.63 28.24 14.62 29.81 16.18C29.81 16.18 29.81 16.18 29.81 16.18C27.24 18 25.81 19.01 25.53 19.21ZM21.4 13.31L21.14 18.53C21.14 18.53 21.14 18.53 21.14 18.53C21.14 19 20.73 19.37 20.26 19.37C20.1 19.37 19.99 19.32 19.84 19.26C19.4 18.96 15.94 16.49 15.5 16.18C16.86 14.88 18.53 13.94 20.36 13.52C20.5 13.49 20.85 13.42 21.4 13.31ZM17.85 21.56C17.85 21.56 17.85 21.56 17.85 21.56C18.22 21.88 18.27 22.4 17.96 22.76C17.85 22.92 17.75 22.97 17.54 23.02C17.03 23.17 12.98 24.34 12.48 24.49C12.32 22.29 12.84 20.05 13.99 18.12C14.51 18.58 15.79 19.72 17.85 21.56ZM18.27 26.05C18.69 26.05 19.11 26.31 19.16 26.73C19.21 26.89 19.21 27.1 19.11 27.25C19.11 27.25 19.11 27.25 19.11 27.25C17.92 30.13 17.26 31.74 17.12 32.06C15.3 30.86 13.83 29.03 13.1 26.94C14.14 26.76 17.75 26.14 18.27 26.05ZM22.71 33.67C21.61 33.67 20.46 33.47 19.42 33.15C19.68 32.69 21.72 28.97 21.98 28.51C22.24 28.19 22.66 28.09 23.02 28.3C23.18 28.4 23.28 28.51 23.44 28.66C23.44 28.66 23.44 28.66 23.44 28.66C24.94 31.39 25.78 32.9 25.95 33.2C25.63 33.26 25.32 33.31 24.95 33.41C24.22 33.57 23.49 33.67 22.71 33.67ZM28.19 32C27.99 31.51 26.36 27.59 26.15 27.1C26.05 26.68 26.26 26.26 26.62 26.1C26.78 26.05 26.94 26 27.09 26C27.62 26.09 31.79 26.8 32.32 26.89C32.05 27.62 31.74 28.3 31.32 28.87C30.54 30.12 29.44 31.22 28.19 32Z" id="fJIVzoGv2"></path><path d="M252.95 32.63C253.68 32.68 254.46 32.58 255.14 32.32C255.56 32.11 255.82 31.64 255.77 31.17C255.71 30.65 255.4 30.18 254.93 30.02C254.15 29.55 253.26 29.13 252.37 28.87C251.49 28.56 250.7 28.19 249.97 27.83C249.29 27.51 248.72 27.1 248.14 26.57C247.62 26.05 247.26 25.48 247 24.8C246.68 24.02 246.58 23.18 246.58 22.35C246.53 20.62 247.31 18.95 248.67 17.91C250.08 16.81 251.96 16.29 254.36 16.29C255.51 16.29 256.71 16.39 257.86 16.65C258.74 16.81 259.63 17.02 260.52 17.33C260.42 17.78 259.62 21.33 259.53 21.77C258.79 21.51 258.12 21.35 257.39 21.14C256.55 20.94 255.66 20.88 254.83 20.88C253.05 20.88 252.16 21.35 252.16 22.35C252.16 22.55 252.22 22.76 252.27 22.97C252.37 23.18 252.53 23.34 252.74 23.49C252.95 23.65 253.26 23.81 253.63 24.02C253.99 24.22 254.51 24.43 255.14 24.64C256.18 25.01 257.23 25.48 258.17 26C258.9 26.37 259.53 26.84 260.05 27.46C260.52 27.93 260.83 28.51 261.04 29.18C261.25 29.92 261.35 30.65 261.35 31.38C261.46 33.15 260.62 34.88 259.11 35.87C257.65 36.86 255.56 37.38 252.84 37.38C251.33 37.43 249.87 37.28 248.41 36.91C247.57 36.7 246.79 36.44 246 36.18C246.1 35.72 246.85 32.05 246.94 31.59C247.88 31.95 248.88 32.26 249.87 32.47C250.91 32.53 251.9 32.63 252.95 32.63M224.18 26.89C224.13 25.32 224.44 23.75 224.96 22.29C225.43 21.04 226.16 19.94 227.1 18.95C227.99 18.06 228.98 17.39 230.13 16.97C231.28 16.5 232.48 16.29 233.68 16.29C236.5 16.29 238.75 17.18 240.37 18.9C241.98 20.62 242.82 23.18 242.82 26.52C242.82 26.84 242.82 27.2 242.77 27.62C242.77 28.04 242.71 28.35 242.71 28.66C241.44 28.66 231.25 28.66 229.98 28.66C230.08 29.76 230.65 30.8 231.59 31.43C232.74 32.16 234.1 32.53 235.46 32.47C236.45 32.47 237.49 32.37 238.49 32.21C239.32 32.06 240.16 31.79 240.94 31.43C241.02 31.89 241.64 35.56 241.72 36.02C241.36 36.23 240.94 36.34 240.52 36.49C239.95 36.65 239.37 36.81 238.8 36.86C238.17 36.96 237.55 37.07 236.82 37.17C236.14 37.22 235.41 37.28 234.67 37.28C233.06 37.33 231.49 37.07 229.98 36.49C228.72 36.02 227.63 35.29 226.69 34.35C225.8 33.41 225.17 32.26 224.76 31.06C224.39 29.65 224.18 28.24 224.18 26.89M237.39 24.75C237.39 24.28 237.28 23.81 237.13 23.34C237.02 22.87 236.76 22.5 236.5 22.14C236.19 21.77 235.82 21.46 235.41 21.25C234.88 20.99 234.36 20.88 233.79 20.88C233.21 20.88 232.69 20.99 232.17 21.25C231.75 21.46 231.33 21.72 231.02 22.08C230.71 22.45 230.45 22.87 230.29 23.34C230.13 23.81 230.03 24.28 229.98 24.75C230.47 24.75 232.94 24.75 237.39 24.75M208.88 11.8L214.52 10.91L214.52 16.76L221.31 16.76L221.31 21.46L214.52 21.46C214.52 25.66 214.52 27.99 214.52 28.45C214.47 29.45 214.68 30.44 215.15 31.27C215.57 31.95 216.4 32.32 217.71 32.32C218.33 32.32 218.96 32.26 219.53 32.16C220.16 32.06 220.73 31.9 221.31 31.69C221.39 32.13 222.01 35.64 222.09 36.08C221.36 36.39 220.58 36.6 219.8 36.81C218.8 37.02 217.76 37.12 216.71 37.12C215.41 37.17 214.1 36.96 212.9 36.49C211.96 36.13 211.13 35.5 210.5 34.77C209.88 33.99 209.46 33.05 209.2 32.06C208.94 30.91 208.83 29.71 208.88 28.56C208.88 27.44 208.88 21.85 208.88 11.8M186.07 26.89C186.02 25.32 186.33 23.75 186.85 22.29C187.32 21.04 188.05 19.94 188.99 18.95C189.88 18.06 190.87 17.39 192.02 16.97C193.17 16.5 194.37 16.29 195.57 16.29C198.39 16.29 200.63 17.18 202.25 18.9C203.87 20.62 204.71 23.18 204.71 26.52C204.71 26.84 204.71 27.2 204.65 27.62C204.6 28.04 204.6 28.35 204.6 28.66C203.32 28.66 193.09 28.66 191.81 28.66C191.92 29.76 192.49 30.8 193.43 31.43C194.58 32.16 195.94 32.53 197.29 32.47C198.29 32.47 199.33 32.37 200.32 32.21C201.16 32.06 201.99 31.79 202.83 31.43C202.91 31.89 203.53 35.56 203.61 36.02C203.25 36.23 202.83 36.34 202.41 36.49C201.84 36.65 201.26 36.81 200.69 36.86C200.06 36.96 199.43 37.07 198.7 37.17C198.02 37.22 197.29 37.28 196.56 37.28C194.94 37.33 193.38 37.07 191.86 36.49C190.61 36.02 189.51 35.29 188.57 34.35C187.69 33.41 187.06 32.26 186.64 31.06C186.23 29.65 186.02 28.24 186.07 26.89M199.28 24.75C199.28 24.28 199.17 23.81 199.02 23.34C198.91 22.87 198.65 22.5 198.39 22.14C198.08 21.77 197.71 21.46 197.29 21.25C196.77 20.99 196.25 20.88 195.68 20.88C195.1 20.88 194.58 20.99 194.06 21.25C193.64 21.46 193.27 21.72 192.96 22.08C192.65 22.45 192.39 22.87 192.23 23.34C192.07 23.81 191.97 24.28 191.92 24.75C192.41 24.75 194.86 24.75 199.28 24.75M164.66 17.44C165.86 17.12 167.12 16.86 168.37 16.65C169.94 16.39 171.55 16.29 173.12 16.29C174.53 16.24 175.94 16.5 177.3 16.97C178.34 17.33 179.28 17.96 179.96 18.79C180.64 19.63 181.11 20.62 181.37 21.67C181.68 22.87 181.79 24.12 181.79 25.37C181.79 26.12 181.79 29.86 181.79 36.6L176.2 36.6C176.2 30.3 176.2 26.8 176.2 26.1C176.2 24.28 175.94 23.02 175.47 22.24C175 21.51 174.11 21.09 172.81 21.09C172.39 21.09 171.97 21.09 171.5 21.14C171.03 21.14 170.67 21.2 170.3 21.25C170.3 22.27 170.3 27.39 170.3 36.6L164.66 36.6L164.66 17.44M160.7 21.77C160.17 21.67 159.6 21.51 158.92 21.41C158.19 21.25 157.46 21.2 156.73 21.2C156.31 21.2 155.89 21.25 155.42 21.3C155.06 21.35 154.69 21.41 154.33 21.51C154.33 22.52 154.33 27.59 154.33 36.7L148.69 36.7C148.69 25.36 148.69 19.06 148.69 17.8C149.84 17.39 151.04 17.07 152.24 16.81C153.75 16.45 155.32 16.29 156.83 16.34C157.2 16.34 157.56 16.39 157.93 16.39C158.35 16.39 158.76 16.45 159.23 16.55C159.65 16.6 160.07 16.65 160.54 16.76C160.9 16.81 161.27 16.92 161.64 17.07C161.57 17.39 161.26 18.95 160.7 21.77M125.66 26.89C125.61 25.32 125.92 23.75 126.45 22.29C126.92 21.04 127.65 19.94 128.59 18.95C129.48 18.06 130.47 17.39 131.62 16.97C132.76 16.5 133.96 16.29 135.17 16.29C137.98 16.29 140.23 17.18 141.85 18.9C143.47 20.62 144.3 23.18 144.3 26.47C144.3 26.78 144.3 27.15 144.25 27.57C144.2 27.98 144.2 28.3 144.2 28.61C142.92 28.61 132.69 28.61 131.41 28.61C131.51 29.71 132.09 30.75 133.03 31.38C134.17 32.11 135.53 32.47 136.89 32.42C137.88 32.42 138.92 32.32 139.92 32.16C140.75 32 141.59 31.74 142.37 31.43C142.45 31.89 143.08 35.56 143.15 36.02C142.79 36.23 142.37 36.34 141.95 36.49C141.38 36.65 140.8 36.81 140.23 36.86C139.6 36.96 138.98 37.07 138.25 37.17C137.57 37.22 136.84 37.28 136.11 37.28C134.49 37.33 132.92 37.07 131.41 36.49C130.15 36.02 129.06 35.29 128.12 34.35C127.23 33.41 126.6 32.26 126.19 31.06C125.87 29.65 125.66 28.3 125.66 26.89M138.92 24.75C138.92 24.28 138.82 23.81 138.66 23.34C138.56 22.87 138.3 22.5 138.04 22.14C137.72 21.77 137.36 21.46 136.94 21.25C136.42 20.99 135.9 20.88 135.32 20.88C134.75 20.88 134.23 20.99 133.7 21.25C133.29 21.46 132.87 21.72 132.56 22.08C132.24 22.45 131.98 22.87 131.82 23.34C131.67 23.81 131.56 24.28 131.51 24.75C132.01 24.75 134.48 24.75 138.92 24.75M116.53 26.57C116.53 22.92 115.17 21.14 112.51 21.14C111.93 21.14 111.36 21.2 110.78 21.35C110.31 21.46 109.84 21.67 109.43 21.93C109.43 22.95 109.43 31.14 109.43 32.16C109.69 32.21 110.05 32.26 110.47 32.32C110.89 32.37 111.36 32.37 111.88 32.37C113.24 32.47 114.54 31.9 115.38 30.8C116.16 29.55 116.58 28.09 116.53 26.57M122.27 26.78C122.27 28.24 122.06 29.71 121.54 31.12C121.12 32.37 120.44 33.47 119.56 34.41C118.62 35.34 117.52 36.08 116.32 36.55C114.91 37.07 113.45 37.28 111.93 37.28C111.25 37.28 110.52 37.22 109.79 37.17C109.06 37.12 108.33 37.02 107.6 36.96C106.92 36.86 106.24 36.75 105.56 36.6C104.88 36.49 104.31 36.34 103.84 36.13C103.84 34.27 103.84 24.96 103.84 8.2L109.48 7.31C109.48 13.26 109.48 16.57 109.48 17.23C110.11 16.97 110.78 16.76 111.46 16.6C112.19 16.45 112.93 16.39 113.66 16.39C114.96 16.39 116.21 16.6 117.41 17.18C118.46 17.65 119.4 18.38 120.13 19.26C120.91 20.26 121.49 21.35 121.8 22.55C122.11 23.86 122.27 25.32 122.27 26.78M98.46 35.97C97.26 36.28 96.01 36.55 94.76 36.7C93.19 36.96 91.57 37.07 90.01 37.07C88.54 37.12 87.13 36.86 85.78 36.39C84.73 35.97 83.85 35.34 83.11 34.51C82.44 33.62 81.97 32.63 81.7 31.53C81.39 30.33 81.29 29.03 81.29 27.77C81.29 27.04 81.29 23.37 81.29 16.76L86.93 16.76C86.93 22.99 86.93 26.46 86.93 27.15C86.93 28.98 87.19 30.28 87.66 31.06C88.13 31.85 89.01 32.26 90.32 32.26C90.74 32.26 91.15 32.26 91.62 32.21C92.09 32.16 92.46 32.16 92.82 32.06C92.82 31.04 92.82 25.94 92.82 16.76L98.46 16.76L98.46 35.97M65.57 23.96C66.15 23.34 66.67 22.71 67.3 22.08C67.87 21.41 68.44 20.78 69.02 20.15C69.59 19.47 70.11 18.9 70.58 18.33C71.05 17.75 71.52 17.23 71.89 16.81C72.56 16.81 77.9 16.81 78.57 16.81C77.21 18.33 75.91 19.84 74.66 21.25C73.35 22.66 71.99 24.12 70.48 25.58C71.32 26.37 72.1 27.15 72.83 28.04C73.61 28.98 74.4 29.92 75.18 30.96C75.91 31.95 76.64 33 77.27 33.99C77.89 34.98 78.42 35.92 78.83 36.75C78.19 36.75 73.01 36.75 72.36 36.75C71.94 36.08 71.47 35.4 70.95 34.61C70.43 33.83 69.85 33.05 69.33 32.21C68.76 31.43 68.13 30.65 67.45 29.92C66.88 29.24 66.25 28.61 65.57 28.09C65.57 28.67 65.57 31.58 65.57 36.81L59.93 36.81L59.93 8.2L65.57 7.31L65.57 23.96" id="akcXmmD40"></path></defs><g><g><use xlink:href="#b5mBEAlLY1" opacity="1" fill="#326de6" fill-opacity="1"></use><g><use xlink:href="#b5mBEAlLY1" opacity="1" fill-opacity="0" stroke="#000000" stroke-width="1" stroke-opacity="0"></use></g></g><g><use xlink:href="#fJIVzoGv2" opacity="1" fill="#ffffff" fill-opacity="1"></use><g><use xlink:href="#fJIVzoGv2" opacity="1" fill-opacity="0" stroke="#000000" stroke-width="1" stroke-opacity="0"></use></g></g><g><use xlink:href="#akcXmmD40" opacity="1" fill="#ffffff" fill-opacity="1"></use><g><use xlink:href="#akcXmmD40" opacity="1" fill-opacity="0" stroke="#000000" stroke-width="1" stroke-opacity="0"></use></g></g></g></svg>